# xmcd CD database file
#
# Track frame offsets:
#	150
#	11965
#	24997
#	37152
#	54514
#	71662
#	87100
#	100050
#	115292
#	129250
#
# Disc length: 1911 seconds
#
# Revision: 0
# Processed by: cddbd v1.4PL0 Copyright (c) Steve Scherf et al.
# Submitted via: CDex 1.51
#
DISCID=7f07750a
DTITLE=Little Joe Blue - Southern Country boy
DYEAR=1997
DGENRE=Blues
TTITLE0=Just Love Won't Do
TTITLE1=I'm Not Your First Love
TTITLE2=Right There Where You Left It
TTITLE3=Only A Fool
TTITLE4=Gonna Walk On
TTITLE5=Encourage Me Baby
TTITLE6=If You'd Only Let Me Love You
TTITLE7=Southern Country Boy
TTITLE8=Little Joe Blue
TTITLE9=Sometime Tomorrow
EXTD=YEAR: 1997
EXTT0=
EXTT1=
EXTT2=
EXTT3=
EXTT4=
EXTT5=
EXTT6=
EXTT7=
EXTT8=
EXTT9=
PLAYORDER=
